0.06m3min_grf.mot
version=1
nRows=20
nColumns 19
inDegrees=yes
endheader
time	1_ground_force_vx	1_ground_force_vy	1_ground_force_vz	1_ground_force_px	1_ground_force_py	1_ground_force_pz	1_ground_torque_x	1_ground_torque_y	1_ground_torque_z	2_ground_force_vx	2_ground_force_vy	2_ground_force_vz	2_ground_force_px	2_ground_force_py	2_ground_force_pz	2_ground_torque_x	2_ground_torque_y	2_ground_torque_z
            1.236000	          -33.192496	          113.427891	          -10.436965	           -0.256320	            0.006188	           -0.398159	            0.230175	           -0.786571	            0.072376	           -9.035458	           87.127774	          -15.687988	           -0.135680	            0.006040	           -0.710770	           -0.077304	            0.745435	           -0.134221
            1.236500	          -30.576443	          115.045085	           -9.106672	           -0.256378	            0.006194	           -0.399563	            0.136314	           -0.512889	            0.040599	          -14.808891	          103.306164	          -13.938324	           -0.140006	            0.006043	           -0.715817	           -0.148067	            1.032911	           -0.139363
            1.237000	          -27.318719	          117.383466	           -7.774880	           -0.259693	            0.006212	           -0.403972	            0.010591	           -0.045506	            0.003014	          -24.779685	          114.130192	          -12.534418	           -0.148000	            0.006027	           -0.719441	           -0.373443	            1.720001	           -0.188900
            1.237500	          -25.715035	          121.890418	           -7.759539	           -0.259026	            0.006216	           -0.404678	           -0.070963	            0.336368	           -0.021413	          -34.543189	          119.073379	          -14.295801	           -0.147775	            0.006034	           -0.721320	           -0.574947	            1.981894	           -0.237944
            1.238000	          -26.178401	          125.863449	           -9.438064	           -0.259307	            0.006221	           -0.405881	           -0.049147	            0.236297	           -0.017719	          -41.647437	          126.977086	          -17.314866	           -0.143958	            0.006046	           -0.720862	           -0.583896	            1.780217	           -0.242754
            1.238500	          -28.202934	          129.840504	          -12.121552	           -0.259593	            0.006212	           -0.403953	            0.037208	           -0.171298	            0.015992	          -45.868968	          140.968532	          -20.407339	           -0.141712	            0.006051	           -0.719822	           -0.396157	            1.217504	           -0.176252
            1.239000	          -30.136154	          133.998432	          -14.942062	           -0.259911	            0.006198	           -0.400664	            0.131561	           -0.584975	            0.065230	          -50.043552	          155.138080	          -21.762835	           -0.142128	            0.006049	           -0.719803	           -0.222901	            0.691006	           -0.096935
            1.239500	          -30.599452	          136.349464	          -16.719256	           -0.259182	            0.006204	           -0.401946	            0.217832	           -0.970647	            0.119021	          -58.002289	          166.525836	          -21.484089	           -0.146039	            0.006037	           -0.720173	           -0.262119	            0.752550	           -0.097089
            1.240000	          -28.263162	          140.677865	          -17.073355	           -0.259360	            0.006207	           -0.402664	            0.153506	           -0.764065	            0.092731	          -69.175522	          172.928265	          -20.752428	           -0.144149	            0.006038	           -0.718768	           -0.434158	            1.085330	           -0.130246
            1.240500	          -25.144808	          145.001698	          -16.328846	           -0.259270	            0.006212	           -0.403938	            0.068157	           -0.393040	            0.044261	          -82.139419	          182.089845	          -20.948716	           -0.138025	            0.006064	           -0.719694	           -0.672868	            1.491640	           -0.171607
            1.241000	          -21.888224	          149.864978	          -15.261368	           -0.260654	            0.006209	           -0.403207	           -0.010955	            0.075006	           -0.007638	          -94.208547	          189.786945	          -22.699267	           -0.132034	            0.006091	           -0.721215	           -0.869580	            1.751804	           -0.209523
            1.241500	          -19.137461	          155.091248	          -14.787220	           -0.259885	            0.006216	           -0.404941	           -0.022817	            0.184907	           -0.017630	         -103.355101	          192.344436	          -26.158862	           -0.129239	            0.006096	           -0.719862	           -0.995299	            1.852256	           -0.251907
            1.242000	          -18.451369	          157.977401	          -15.189262	           -0.260594	            0.006215	           -0.404702	            0.012932	           -0.110719	            0.010645	         -108.421350	          193.808726	          -28.779428	           -0.129393	            0.006091	           -0.718535	           -0.982866	            1.756924	           -0.260893
            1.242500	          -18.502521	          162.131367	          -17.005607	           -0.260712	            0.006212	           -0.404026	            0.049332	           -0.432284	            0.045341	         -110.163952	          196.200572	          -29.943351	           -0.127404	            0.006091	           -0.716622	           -0.742954	            1.323191	           -0.201940
            1.243000	          -19.196306	          165.205384	          -19.237699	           -0.261019	            0.006213	           -0.404083	            0.092043	           -0.792134	            0.092242	         -111.908205	          199.320811	          -28.805169	           -0.125745	            0.006093	           -0.715539	           -0.496586	            0.884474	           -0.127821
            1.243500	          -19.246693	          169.538239	          -20.732280	           -0.261205	            0.006206	           -0.402481	            0.101960	           -0.898138	            0.109830	         -116.182561	          202.612403	          -26.632836	           -0.124727	            0.006098	           -0.715952	           -0.451080	            0.786645	           -0.103402
            1.244000	          -17.186031	          173.867570	          -21.314975	           -0.261082	            0.006208	           -0.403095	            0.058353	           -0.590350	            0.072373	         -123.640723	          205.340010	          -24.461120	           -0.123208	            0.006110	           -0.717638	           -0.737139	            1.224226	           -0.145836
            1.244500	          -13.334169	          177.470678	          -20.621235	           -0.261752	            0.006211	           -0.403755	            0.015696	           -0.208904	            0.024274	         -132.232340	          210.461022	          -23.265873	           -0.120500	            0.006127	           -0.719758	           -1.151148	            1.832167	           -0.202541
            1.245000	           -9.479885	          180.889392	          -18.965293	           -0.261748	            0.006214	           -0.404362	            0.001600	           -0.030534	            0.003201	         -138.717630	          215.962645	          -23.384196	           -0.118717	            0.006135	           -0.720180	           -1.440776	            2.243074	           -0.242878
            1.245500	           -6.727313	          184.310449	          -17.902747	           -0.262343	            0.006218	           -0.405512	            0.002603	           -0.071309	            0.006926	         -140.562416	          220.746902	          -24.211041	           -0.118428	            0.006133	           -0.719334	           -1.329441	            2.087827	           -0.228988
